<?xml version="1.0" standalone="no"?>
<!DOCTYPE svg PUBLIC "-//W3C//DTD SVG 20010904//EN"
 "http://www.w3.org/TR/2001/REC-SVG-20010904/DTD/svg10.dtd">
<svg version="1.0" xmlns="http://www.w3.org/2000/svg"
 width="310.000000pt" height="310.000000pt" viewBox="0 0 310.000000 310.000000"
 preserveAspectRatio="xMidYMid meet">
<metadata>
Created by potrace 1.11, written by Peter Selinger 2001-2013
</metadata>
<g transform="translate(0.000000,310.000000) scale(0.100000,-0.100000)"
fill="#000000" stroke="none">
<path d="M0 1550 l0 -1550 1550 0 1550 0 0 1550 0 1550 -1550 0 -1550 0 0
-1550z m2281 912 c4 -4 10 -114 14 -245 l6 -238 -58 3 -58 3 -17 63 c-37 138
-89 201 -201 243 -59 21 -76 22 -345 23 -270 1 -284 0 -298 -19 -12 -16 -14
-74 -12 -345 l3 -325 95 0 c104 1 240 20 281 41 61 31 90 82 116 209 9 39 9
40 57 43 27 2 52 -1 55 -6 3 -6 5 -173 3 -372 l-2 -361 -53 3 -52 3 -13 64
c-28 145 -81 191 -247 216 -60 9 -139 15 -175 13 l-65 -3 -3 -255 c-1 -140 2
-284 7 -319 13 -82 47 -126 126 -166 l60 -29 220 -1 c193 0 227 2 280 20 73
24 123 53 164 97 37 38 93 151 111 223 18 69 25 75 83 75 l50 0 -6 -97 c-20
-354 -30 -458 -45 -470 -12 -10 -195 -13 -838 -13 -452 0 -829 3 -838 6 -12 4
-16 20 -16 55 0 48 0 48 38 54 138 23 178 43 205 103 17 37 23 1391 7 1468
-14 64 -62 114 -112 114 -17 0 -48 5 -69 12 -39 11 -39 11 -39 64 0 41 4 53
17 56 33 6 1558 -3 1564 -10z"/>
</g>
</svg>
